<svg width="512" height="512" viewBox="0 0 512 512" fill="none" xmlns="http://www.w3.org/2000/svg">
<path d="M505.18 349.833L505.185 349.84L505.189 349.846C509.437 355.982 505.901 364.514 498.565 365.803L498.553 365.806L498.541 365.808L389.541 385.508L386.127 386.125L385.51 389.539L365.81 498.539L365.809 498.541C364.486 505.884 356 509.403 349.861 505.142L349.861 505.142L258.85 441.992L256 440.014L253.15 441.992L162.134 505.146L162.133 505.146C155.994 509.407 147.513 505.891 146.184 498.541L141.264 499.43L146.184 498.541L126.484 389.541L125.867 386.127L122.453 385.51L13.4554 365.81C6.10333 364.478 2.59176 355.994 6.84795 349.86L2.74008 347.01L6.84802 349.86L69.998 258.85L71.9663 256.014L70.0109 253.168L6.85686 161.268L6.7783 161.154L6.69353 161.044C2.9008 156.132 5.80707 147.549 13.4166 146.226L13.4328 146.223L13.449 146.22L122.489 126.52L125.933 125.898L126.528 122.449L145.3 13.4511C145.301 13.4449 145.302 13.4386 145.303 13.4324C146.646 6.09193 155.121 2.59083 161.25 6.84381L161.259 6.85029L161.268 6.85672L253.168 70.0107L256.034 71.9801L258.878 69.9789L349.855 5.95369C349.859 5.9508 349.863 5.9479 349.867 5.94501C356.005 1.69805 364.477 5.21398 365.804 12.559L385.504 121.559L386.121 124.973L389.535 125.59L498.533 145.29C498.534 145.29 498.534 145.29 498.535 145.29C505.887 146.624 509.398 155.107 505.142 161.239L509.25 164.09L505.142 161.24L441.992 252.25L440.023 255.087L441.98 257.933L505.18 349.833ZM165.9 254.2C165.9 204.81 205.772 164.1 256 164.1C306.088 164.1 346.1 206.489 346.1 256C346.1 305.42 307.078 346.1 256 346.1C205.042 346.1 165.9 303.743 165.9 254.2ZM123.9 256C123.9 328.528 182.526 388.1 256 388.1C329.462 388.1 388.1 329.461 388.1 256C388.1 183.438 328.551 123.9 256 123.9C183.472 123.9 123.9 182.525 123.9 256Z" fill="#C976EE" stroke="black" stroke-width="10"/>
</svg>
