<svg width="1102" height="102" viewBox="0 0 1102 102" fill="none" xmlns="http://www.w3.org/2000/svg">
<path d="M534.649 88.8407L540.559 90.9427C546.469 93.2034 558.289 97.1695 570.109 86.7386C581.929 76.1491 593.748 50.7661 605.568 44.4203C617.388 38.0746 629.208 50.7661 641.028 57.1119C652.847 63.4576 664.667 63.4576 676.487 59.2139C688.307 55.1288 700.127 46.4034 711.946 44.4203C723.766 42.4373 735.586 46.4034 747.406 48.6641C759.226 50.7661 771.045 50.7661 782.865 61.3556C794.685 71.7864 806.505 93.2034 818.325 99.4302C830.144 105.895 841.964 97.1695 853.784 80.3929C865.604 63.4576 877.424 38.0746 889.243 29.6268C901.063 21.0203 912.883 29.7458 924.703 44.4203C936.523 59.0949 948.343 80.5119 960.162 84.5969C971.982 88.8407 983.802 76.1491 995.622 59.2139C1007.44 42.4373 1019.26 21.0203 1031.08 21.1393C1042.9 21.0203 1054.72 42.4373 1066.54 52.8681C1078.36 63.4576 1090.18 63.4576 1096.09 63.4576H1102V0H1096.09C1090.18 0 1078.36 0 1066.54 0C1054.72 0 1042.9 0 1031.08 0C1019.26 0 1007.44 0 995.622 0C983.802 0 971.982 0 960.162 0C948.343 0 936.523 0 924.703 0C912.883 0 901.063 0 889.243 0C877.424 0 865.604 0 853.784 0C841.964 0 830.144 0 818.325 0C806.505 0 794.685 0 782.865 0C771.045 0 759.226 0 747.406 0C735.586 0 723.766 0 711.946 0C700.127 0 688.307 0 676.487 0C664.667 0 652.847 0 641.028 0C629.208 0 617.388 0 605.568 0C593.748 0 581.929 0 570.109 0C558.289 0 546.469 0 540.559 0H534.649V88.8407Z" fill="#FFC8DD"/>
<path d="M567.351 88.8407L561.441 90.9427C555.531 93.2034 543.711 97.1695 531.891 86.7386C520.071 76.1491 508.252 50.7661 496.432 44.4203C484.612 38.0746 472.792 50.7661 460.972 57.1119C449.153 63.4576 437.333 63.4576 425.513 59.2139C413.693 55.1288 401.873 46.4034 390.054 44.4203C378.234 42.4373 366.414 46.4034 354.594 48.6641C342.774 50.7661 330.955 50.7661 319.135 61.3556C307.315 71.7864 295.495 93.2034 283.675 99.4302C271.856 105.895 260.036 97.1695 248.216 80.3929C236.396 63.4576 224.576 38.0746 212.757 29.6268C200.937 21.0203 189.117 29.7458 177.297 44.4203C165.477 59.0949 153.657 80.5119 141.838 84.5969C130.018 88.8407 118.198 76.1491 106.378 59.2139C94.5584 42.4373 82.7386 21.0203 70.9188 21.1393C59.099 21.0203 47.2792 42.4373 35.4594 52.8681C23.6396 63.4576 11.8198 63.4576 5.90989 63.4576H-1.33514e-05V0H5.90989C11.8198 0 23.6396 0 35.4594 0C47.2792 0 59.099 0 70.9188 0C82.7386 0 94.5584 0 106.378 0C118.198 0 130.018 0 141.838 0C153.657 0 165.477 0 177.297 0C189.117 0 200.937 0 212.757 0C224.576 0 236.396 0 248.216 0C260.036 0 271.856 0 283.675 0C295.495 0 307.315 0 319.135 0C330.955 0 342.774 0 354.594 0C366.414 0 378.234 0 390.054 0C401.873 0 413.693 0 425.513 0C437.333 0 449.153 0 460.972 0C472.792 0 484.612 0 496.432 0C508.252 0 520.071 0 531.891 0C543.711 0 555.531 0 561.441 0H567.351V88.8407Z" fill="#FFC8DD"/>
<path d="M567.351 88.8407L561.441 90.9427C555.531 93.2034 543.711 97.1695 531.891 86.7386C520.071 76.1491 508.252 50.7661 496.432 44.4203C484.612 38.0746 472.792 50.7661 460.972 57.1119C449.153 63.4576 437.333 63.4576 425.513 59.2139C413.693 55.1288 401.873 46.4034 390.054 44.4203C378.234 42.4373 366.414 46.4034 354.594 48.6641C342.774 50.7661 330.955 50.7661 319.135 61.3556C307.315 71.7864 295.495 93.2034 283.675 99.4302C271.856 105.895 260.036 97.1695 248.216 80.3929C236.396 63.4576 224.576 38.0746 212.757 29.6268C200.937 21.0203 189.117 29.7458 177.297 44.4203C165.477 59.0949 153.657 80.5119 141.838 84.5969C130.018 88.8407 118.198 76.1491 106.378 59.2139C94.5584 42.4373 82.7386 21.0203 70.9188 21.1393C59.099 21.0203 47.2792 42.4373 35.4594 52.8681C23.6396 63.4576 11.8198 63.4576 5.90989 63.4576H-1.33514e-05V0H5.90989C11.8198 0 23.6396 0 35.4594 0C47.2792 0 59.099 0 70.9188 0C82.7386 0 94.5584 0 106.378 0C118.198 0 130.018 0 141.838 0C153.657 0 165.477 0 177.297 0C189.117 0 200.937 0 212.757 0C224.576 0 236.396 0 248.216 0C260.036 0 271.856 0 283.675 0C295.495 0 307.315 0 319.135 0C330.955 0 342.774 0 354.594 0C366.414 0 378.234 0 390.054 0C401.873 0 413.693 0 425.513 0C437.333 0 449.153 0 460.972 0C472.792 0 484.612 0 496.432 0C508.252 0 520.071 0 531.891 0C543.711 0 555.531 0 561.441 0H567.351V88.8407Z" fill="#FFC8DD"/>
</svg>
