<?xml version="1.0" standalone="no"?><svg xmlns="http://www.w3.org/2000/svg" viewBox="0 0 1440 320"><path fill="#ffdab9" fill-opacity="1" d="M0,160L15,133.3C30,107,60,53,90,58.7C120,64,150,128,180,170.7C210,213,240,235,270,240C300,245,330,235,360,213.3C390,192,420,160,450,154.7C480,149,510,171,540,186.7C570,203,600,213,630,197.3C660,181,690,139,720,117.3C750,96,780,96,810,128C840,160,870,224,900,250.7C930,277,960,267,990,256C1020,245,1050,235,1080,240C1110,245,1140,267,1170,234.7C1200,203,1230,117,1260,85.3C1290,53,1320,75,1350,80C1380,85,1410,75,1425,69.3L1440,64L1440,320L1425,320C1410,320,1380,320,1350,320C1320,320,1290,320,1260,320C1230,320,1200,320,1170,320C1140,320,1110,320,1080,320C1050,320,1020,320,990,320C960,320,930,320,900,320C870,320,840,320,810,320C780,320,750,320,720,320C690,320,660,320,630,320C600,320,570,320,540,320C510,320,480,320,450,320C420,320,390,320,360,320C330,320,300,320,270,320C240,320,210,320,180,320C150,320,120,320,90,320C60,320,30,320,15,320L0,320Z"></path></svg>