<?xml version="1.0" standalone="no"?><svg xmlns="http://www.w3.org/2000/svg" viewBox="0 0 1440 320"><path fill="#FFC8DD" fill-opacity="1" d="M0,224L15,229.3C30,235,60,245,90,218.7C120,192,150,128,180,112C210,96,240,128,270,144C300,160,330,160,360,149.3C390,139,420,117,450,112C480,107,510,117,540,122.7C570,128,600,128,630,154.7C660,181,690,235,720,250.7C750,267,780,245,810,202.7C840,160,870,96,900,74.7C930,53,960,75,990,112C1020,149,1050,203,1080,213.3C1110,224,1140,192,1170,149.3C1200,107,1230,53,1260,53.3C1290,53,1320,107,1350,133.3C1380,160,1410,160,1425,160L1440,160L1440,0L1425,0C1410,0,1380,0,1350,0C1320,0,1290,0,1260,0C1230,0,1200,0,1170,0C1140,0,1110,0,1080,0C1050,0,1020,0,990,0C960,0,930,0,900,0C870,0,840,0,810,0C780,0,750,0,720,0C690,0,660,0,630,0C600,0,570,0,540,0C510,0,480,0,450,0C420,0,390,0,360,0C330,0,300,0,270,0C240,0,210,0,180,0C150,0,120,0,90,0C60,0,30,0,15,0L0,0Z"></path></svg>