<svg width="50" height="50" viewBox="0 0 50 50" fill="none" xmlns="http://www.w3.org/2000/svg">
<path d="M39.375 47.6041L30.3125 41.0416C30 40.7291 29.4791 40.7291 29.0625 41.0416L20 47.6041C18.6458 48.6458 16.6667 47.6041 16.6667 45.9375V13.5417C16.6667 12.3958 17.6042 11.4583 18.75 11.4583H40.625C41.7708 11.4583 42.7083 12.3958 42.7083 13.5417V45.9375C42.7083 47.6041 40.8333 48.6458 39.375 47.6041Z" fill="#FFEBBE"/>
<path d="M28.4375 38.4375L25.625 36.3541C25.3125 36.0416 24.7916 36.0416 24.375 36.3541L15.3125 42.9166C13.9583 43.9583 11.9792 42.9166 11.9792 41.25V23.2291" stroke="#F175E1" stroke-width="2" stroke-miterlimit="10" stroke-linecap="round" stroke-linejoin="round"/>
<path d="M11.9792 17.0833V8.74999C11.9792 7.60416 12.9167 6.66666 14.0625 6.66666H35.9375C37.0833 6.66666 38.0208 7.60416 38.0208 8.74999V41.1458C38.0208 42.8125 36.1458 43.8541 34.6875 42.8125L32.6041 41.3541" stroke="#F175E1" stroke-width="2" stroke-miterlimit="10" stroke-linecap="round" stroke-linejoin="round"/>
</svg>
