<svg width="46" height="47" viewBox="0 0 46 47" fill="none" xmlns="http://www.w3.org/2000/svg">
<path d="M35.7211 43.8975L27.5015 37.9454C27.218 37.662 26.7457 37.662 26.3677 37.9454L18.1481 43.8975C16.9199 44.8423 15.1248 43.8975 15.1248 42.3859V13.0031C15.1248 11.9639 15.9751 11.1136 17.0144 11.1136H36.8548C37.8941 11.1136 38.7444 11.9639 38.7444 13.0031V42.3859C38.7444 43.8975 37.0438 44.8423 35.7211 43.8975Z" fill="#F175E1"/>
<path d="M25.8009 35.5834L23.25 33.6939C22.9665 33.4104 22.4941 33.4104 22.1162 33.6939L13.8966 39.646C12.6684 40.5908 10.8733 39.646 10.8733 38.1343V21.7896" stroke="#F175E1" stroke-width="2" stroke-miterlimit="10" stroke-linecap="round" stroke-linejoin="round"/>
<path d="M10.8733 16.2154V8.65714C10.8733 7.61788 11.7236 6.76758 12.7629 6.76758H32.6033C33.6426 6.76758 34.4929 7.61788 34.4929 8.65714V38.0399C34.4929 39.5515 32.7923 40.4963 31.4696 39.5515L29.58 38.2288" stroke="#F175E1" stroke-width="2" stroke-miterlimit="10" stroke-linecap="round" stroke-linejoin="round"/>
</svg>
