<svg width="46" height="46" viewBox="0 0 46 46" fill="none" xmlns="http://www.w3.org/2000/svg">
<path d="M35.8282 43.1765L27.6086 37.2244C27.3251 36.941 26.8528 36.941 26.4748 37.2244L18.2552 43.1765C17.027 44.1213 15.2319 43.1765 15.2319 41.6649V12.2822C15.2319 11.2429 16.0822 10.3926 17.1215 10.3926H36.9619C38.0012 10.3926 38.8515 11.2429 38.8515 12.2822V41.6649C38.8515 43.1765 37.1509 44.1213 35.8282 43.1765Z" fill="#6CBFD3"/>
<path d="M25.908 34.8625L23.3571 32.9729C23.0736 32.6895 22.6012 32.6895 22.2233 32.9729L14.0037 38.925C12.7755 39.8698 10.9804 38.925 10.9804 37.4134V21.0686" stroke="#F175E1" stroke-width="2" stroke-miterlimit="10" stroke-linecap="round" stroke-linejoin="round"/>
<path d="M10.9804 15.4944V7.93616C10.9804 6.8969 11.8307 6.0466 12.87 6.0466H32.7104C33.7497 6.0466 34.6 6.8969 34.6 7.93616V37.3189C34.6 38.8305 32.8994 39.7753 31.5767 38.8305L29.6871 37.5078" stroke="#F175E1" stroke-width="2" stroke-miterlimit="10" stroke-linecap="round" stroke-linejoin="round"/>
</svg>
