<svg width="46" height="46" viewBox="0 0 46 46" fill="none" xmlns="http://www.w3.org/2000/svg">
<path d="M35.8327 43.6185L27.6131 37.6664C27.3297 37.3829 26.8573 37.3829 26.4794 37.6664L18.2598 43.6185C17.0315 44.5633 15.2365 43.6185 15.2365 42.1068V12.7241C15.2365 11.6849 16.0868 10.8345 17.126 10.8345H36.9664C38.0057 10.8345 38.856 11.6849 38.856 12.7241V42.1068C38.856 43.6185 37.1554 44.5633 35.8327 43.6185Z" fill="#C976EE"/>
<path d="M25.9125 35.3044L23.3616 33.4148C23.0781 33.1314 22.6057 33.1314 22.2278 33.4148L14.0082 39.367C12.78 40.3118 10.9849 39.367 10.9849 37.8553V21.5106" stroke="#F175E1" stroke-width="2" stroke-miterlimit="10" stroke-linecap="round" stroke-linejoin="round"/>
<path d="M10.9849 15.9364V8.37812C10.9849 7.33886 11.8352 6.48856 12.8745 6.48856H32.7149C33.7542 6.48856 34.6045 7.33886 34.6045 8.37812V37.7608C34.6045 39.2725 32.9039 40.2173 31.5812 39.2725L29.6916 37.9498" stroke="#F175E1" stroke-width="2" stroke-miterlimit="10" stroke-linecap="round" stroke-linejoin="round"/>
</svg>
