<svg width="46" height="46" viewBox="0 0 46 46" fill="none" xmlns="http://www.w3.org/2000/svg">
<path d="M36.1445 43.1765L27.9249 37.2244C27.6414 36.941 27.1691 36.941 26.7911 37.2244L18.5715 43.1765C17.3433 44.1213 15.5482 43.1765 15.5482 41.6649V12.2822C15.5482 11.2429 16.3985 10.3926 17.4378 10.3926H37.2782C38.3175 10.3926 39.1678 11.2429 39.1678 12.2822V41.6649C39.1678 43.1765 37.4672 44.1213 36.1445 43.1765Z" fill="#F6AE65"/>
<path d="M26.2243 34.8625L23.6734 32.9729C23.3899 32.6895 22.9175 32.6895 22.5396 32.9729L14.32 38.925C13.0918 39.8698 11.2967 38.925 11.2967 37.4134V21.0686" stroke="#F175E1" stroke-width="2" stroke-miterlimit="10" stroke-linecap="round" stroke-linejoin="round"/>
<path d="M11.2967 15.4944V7.93616C11.2967 6.8969 12.147 6.0466 13.1863 6.0466H33.0267C34.066 6.0466 34.9163 6.8969 34.9163 7.93616V37.3189C34.9163 38.8305 33.2157 39.7753 31.893 38.8305L30.0034 37.5078" stroke="#F175E1" stroke-width="2" stroke-miterlimit="10" stroke-linecap="round" stroke-linejoin="round"/>
</svg>
